<?xml version="1.0" encoding="UTF-8" standalone="no"?>
<!DOCTYPE svg PUBLIC "-//W3C//DTD SVG 1.1//EN" "http://www.w3.org/Graphics/SVG/1.1/DTD/svg11.dtd">
<svg width="100%" height="100%" viewBox="0 0 804 752" version="1.1" xmlns="http://www.w3.org/2000/svg" xmlns:xlink="http://www.w3.org/1999/xlink" xml:space="preserve" xmlns:serif="http://www.serif.com/" style="fill-rule:evenodd;clip-rule:evenodd;stroke-linejoin:round;stroke-miterlimit:2;">
    <g transform="matrix(1,0,0,1,-38049,-19733.6)">
        <g id="OBJECTS">
        </g>
        <g id="Artboard1" transform="matrix(0.0808812,0,0,0.0534824,38049,19733.6)">
            <rect x="0" y="0" width="9933.07" height="14043.3" style="fill:none;"/>
            <g transform="matrix(17.5805,0,0,26.5869,465.882,214.522)">
                <g id="BACKGROUND">
                    <g>
                        <path d="M209.78,30.8C231.89,17.68 258.81,13.02 284.04,17.91C310.34,22.78 334.43,38.14 350.2,59.71C364.21,78.68 371.65,102.41 370.87,126C370.45,136.31 369.82,146.62 369.4,156.94C368.79,171.83 371.09,186.84 376.16,200.86C377.76,205.26 379.65,209.54 381.26,213.93C386.41,228.01 389.08,242.99 389.16,257.98C389.2,269.39 387.37,280.68 386.28,292C393.64,300.33 396.81,311.14 400.95,321.21C405.26,318.68 409.97,316.83 414.93,316.09C438.68,312.13 462.42,308.13 486.17,304.21C490.94,303 496.09,306.97 495.95,311.92C496.08,356.29 495.94,400.67 496.02,445.04C496.03,447.801 496.12,450.9 494.14,453.1C492.69,455.03 490.24,455.62 488.06,456.29C487.49,464.57 480.32,471.14 472.13,471.56C465.89,472.57 459.66,473.63 453.42,474.66C449.78,484.14 441.8,491.92 431.95,494.68C419.84,498.44 405.85,493.94 397.96,484.08C394.89,480.54 393.28,476.09 391.17,471.99C384.38,471.77 377.49,472.67 370.81,471.13C361.88,469.3 352.94,467.55 344.01,465.76C343.99,475.84 344.01,485.92 344,496L328,496C327.98,484.84 328.04,473.69 327.97,462.53C316.98,460.38 306,458.14 295.02,455.95C291.19,455.46 287.96,452.04 288.04,448.12C287.93,412.33 288.04,376.54 287.99,340.75C282.39,350.93 276.89,361.16 271.27,371.34C269.67,374.66 265.76,376.7 262.13,375.74C259.45,375.18 257.519,373.02 256.34,370.67C241.31,343.11 226.29,315.54 211.24,288C201.81,288.05 192.38,287.9 182.95,288.07C167.76,288.52 153.25,298.42 147.56,312.57C143.97,321.33 140.53,330.17 136.92,338.94C136.2,340.51 135.9,342.23 135.98,343.97C136.05,375.45 135.95,406.94 136.02,438.43C148.22,415.82 160.35,393.18 172.54,370.57C173.83,368.1 174.73,365.46 175.85,362.92C180.2,353.27 186.75,344.64 194.87,337.85C198.29,341.94 201.71,346.03 205.11,350.14C195.05,358.64 188.07,370.76 186.2,383.83C183.98,398.03 187.67,413.09 196.4,424.54C198.01,426.73 200.07,428.98 199.96,431.9C200.06,453.26 199.97,474.63 200,496L184,496C183.91,475.63 184.16,455.25 183.88,434.9C177.93,426.5 173.27,417.11 171.11,406.99C159.32,428.92 147.53,450.84 135.73,472.77C133.93,476.24 132.58,479.991 130.13,483.09C124.14,491.21 114.17,496.1 104.09,496.01C96.06,496.37 87.83,494.45 81.22,489.77C71.31,483.03 65.4,470.92 66.24,458.96C67.88,436.61 69.67,414.28 71.36,391.94C72.45,381.33 71.85,370.65 72,360.01C66.34,360.07 60.63,359.93 55.1,358.62C45.87,356.69 37.77,351.66 29.38,347.61C21.66,343.85 16.27,335.74 16.07,327.12C15.94,319.06 15.97,310.98 16.049,302.91C16.11,293.99 24,286.1 32.91,285.97C40.04,285.57 45.73,290.55 52.09,292.93C61.84,297.22 72.69,295.74 83.03,296C80.14,290.81 78.24,284.84 79.31,278.86C80.69,268.57 89.63,259.96 99.97,258.99C109.95,257.71 120.27,263.69 124.15,272.96C127.97,282.25 131.64,291.61 135.37,300.94C137.26,297.76 139.35,294.69 141.7,291.84C140.6,280.26 138.68,268.71 138.89,257.04C139.06,239.98 142.7,223.01 149.34,207.3C156.23,191.18 159.46,173.51 158.56,155.98C158.1,138.34 155.39,120.48 158.97,102.99C164.49,73.11 183.51,46.07 209.78,30.8ZM243.98,34.24C223.11,38.89 204.09,51.22 191.3,68.34C178.92,84.73 172.4,105.41 173.15,125.93C173.56,136.29 174.2,146.64 174.6,157C175.16,172.06 173.11,187.22 168.5,201.58C165.71,210.5 161.38,218.89 159.04,227.97C154.2,244.69 154.03,262.37 156.45,279.51C164.85,274.83 174.36,272.07 184.01,272.02C196.04,271.94 208.06,272.06 220.08,271.98C222.32,272.3 224.3,270.38 223.98,268.12C224.04,257.83 223.99,247.53 223.99,237.23C200.57,223.87 184.89,198.05 184.09,171.07C183.89,157.04 184.04,143.01 184,128.97C183.69,125.54 185.62,122.39 188.5,120.66C202.98,110.8 214.71,97.06 222.38,81.33C224.2,77.84 225.65,73.22 230.02,72.27C233.92,71.05 237.28,73.8 239.98,76.22C267.09,99.35 300.73,114.71 336,119.89C340.2,120.07 344.07,123.57 343.96,127.91C344.06,140.94 343.97,153.97 343.99,167C344.06,178.63 341.69,190.29 336.87,200.88C330.08,216.07 318.34,228.88 304,237.27C304.02,247.54 303.96,257.82 304.02,268.09C303.69,270.32 305.61,272.29 307.85,271.98C319.91,272.06 331.97,271.95 344.02,272.02C353.66,272.09 363.18,274.81 371.53,279.57C373.89,263.15 373.89,246.23 369.56,230.12C367.12,219.71 362.04,210.2 359.02,199.97C356.65,192.17 355,184.15 354.1,176.05C352.33,160.73 354.16,145.32 354.69,129.99C355.98,112.99 352.45,95.65 344.47,80.58C334.19,60.89 316.41,45.26 295.54,37.65C279.17,31.55 261.019,30.35 243.98,34.24ZM200,132.21C200.04,144.81 199.93,157.42 200.05,170.02C200.48,188.47 209.57,206.38 223.99,217.85C237,228.5 254.38,233.52 271.07,231.59C288.22,229.79 304.33,220.53 314.76,206.85C323.09,196.08 327.81,182.61 327.97,169C328.04,157.61 327.99,146.21 327.99,134.82C294,128.78 261.59,114.14 234.63,92.55C226.22,108.14 214.31,121.77 200,132.21ZM240,244.33C239.93,252.91 240.14,261.51 239.9,270.09C239.58,277.13 234.87,283.39 228.62,286.41C231.79,292.28 235.01,298.13 238.19,303.99C255.4,304 272.6,304 289.8,304C293,298.14 296.19,292.28 299.38,286.42C293.14,283.39 288.41,277.15 288.09,270.11C287.86,261.52 288.07,252.921 288,244.33C272.46,249.14 255.54,249.14 240,244.33ZM100.19,275.24C96.16,276.48 93.85,281.46 95.68,285.31C97.4,289.18 99.45,292.9 101.32,296.71C102.55,299.31 104.33,301.97 103.9,304.99C103.5,308.84 99.96,311.99 96.09,311.95C86.06,312.06 76.02,312.01 65.99,311.96C55.63,311.87 45.69,308.27 36.73,303.28C35.4,302.67 32.86,300.88 32.14,303.07C31.83,310.74 32.04,318.44 32.029,326.12C31.9,329.5 34.26,332.44 37.28,333.71C44.66,337.16 51.69,341.75 59.83,343.24C64.5,344.15 69.28,344 74.01,344C89.34,343.99 104.67,344 120,344C120.01,331.99 119.97,319.98 120.02,307.97C120.16,305.98 119.5,304.09 118.73,302.29C115.57,294.68 112.67,286.96 109.48,279.37C108.05,275.86 103.75,273.94 100.19,275.24ZM307.09,305.74C327.76,309.21 348.45,312.57 369.12,316.07C374.44,316.87 379.46,318.95 384,321.81C381.42,315.66 379.49,309.06 375.22,303.8C368.08,294.5 356.82,288.41 345.05,288.07C335.64,287.88 326.23,288.09 316.82,287.97C313.5,293.85 310.32,299.81 307.09,305.74ZM246.95,320.01C252.61,330.44 258.299,340.86 264,351.27C269.7,340.85 275.38,330.43 281.06,320.01C269.69,320 258.32,319.99 246.95,320.01ZM303.99,321.46C303.98,324.12 303.99,326.8 304.04,329.47C327.77,334.18 351.49,338.95 375.22,343.69C377.6,344.1 380.03,344.02 382.44,343.98C379.61,337.81 373.84,333 367.05,331.97C346.04,328.45 325.02,324.88 303.99,321.46ZM424.03,330.77C419.14,331.68 413.88,331.93 409.6,334.73C406,336.87 403.39,340.28 401.56,343.98C403.87,344.01 406.21,344.1 408.51,343.74C432.33,339 456.13,334.17 479.95,329.48C480,326.8 480.01,324.12 480,321.44C461.36,324.66 442.68,327.61 424.03,330.77ZM304.01,345.76C304.01,377.66 303.96,409.57 304.03,441.47C325.38,445.57 346.66,450.03 367.99,454.24C368.01,422.35 367.99,390.46 368.01,358.57C346.68,354.28 325.34,350.03 304.01,345.76ZM416.08,358.48C415.9,390.4 416.04,422.32 416.01,454.24C418.66,453.71 421.32,453.18 423.98,452.66C424.07,445.09 423.89,437.51 424.06,429.95C424.33,421.67 430.94,414.22 439.09,412.86C448.42,411.25 457.78,409.69 467.13,408.19C471.64,407.45 476.15,408.85 480.02,411.11C479.97,389.33 480.02,367.55 479.99,345.77C458.68,349.98 437.41,354.36 416.08,358.48ZM88,360L88,376L120,376L120,360L88,360ZM384,360L384,456L400,456L400,360L384,360ZM87.39,392.02C85.7,414.67 83.87,437.32 82.21,459.98C81.53,468.53 87.51,476.97 95.77,479.23C104.16,481.84 113.94,477.61 117.85,469.76C120.03,465.87 120.09,461.3 120.01,456.97C119.98,435.31 120.01,413.66 120,392C109.13,392.01 98.26,391.98 87.39,392.02ZM443.02,428.39C441.63,428.52 439.88,429.22 440.06,430.92C439.9,440.84 440.05,450.76 440,460.67C450.67,458.89 461.36,457.18 472.01,455.32C471.97,445.85 472.05,436.38 471.97,426.91C472.23,425.23 470.69,423.59 468.99,424.11C460.32,425.44 451.68,426.98 443.02,428.39ZM408.9,472.19C411.26,475.28 414.23,478.09 418.06,479.19C423.58,481.1 429.78,479.42 434.1,475.64C430.78,474.09 427.98,471.66 426,468.59C420.3,469.8 414.51,470.61 408.9,472.19ZM224.4,136.56C231,134.29 238.76,139.02 239.78,145.91C241.2,152.54 235.84,159.5 229.1,159.92C222.75,160.69 216.52,155.5 216.07,149.14C215.44,143.66 219.13,138.13 224.4,136.56ZM296.41,136.56C303.36,134.14 311.48,139.58 311.91,146.92C312.84,154.06 306.1,160.79 298.97,159.93C291.87,159.55 286.41,151.95 288.37,145.09C289.33,141.11 292.48,137.76 296.41,136.56ZM239.91,176.02C245.21,175.98 250.5,176 255.8,176C256.22,180.2 259.57,184.13 264.02,183.98C268.45,184.1 271.76,180.18 272.2,176C277.49,176 282.79,175.98 288.08,176.02C287.88,182.99 284.86,189.91 279.42,194.37C271.66,201.11 259.45,201.84 250.93,196.1C244.14,191.82 240.07,183.99 239.91,176.02Z" style="fill:rgb(71,116,184);fill-rule:nonzero;"/>
                    </g>
                </g>
            </g>
        </g>
        <g id="BACKGROUND1" serif:id="BACKGROUND">
        </g>
        <g id="Capa-3" serif:id="Capa 3">
        </g>
    </g>
</svg>
