<?xml version="1.0" encoding="UTF-8" standalone="no"?>
<!DOCTYPE svg PUBLIC "-//W3C//DTD SVG 1.1//EN" "http://www.w3.org/Graphics/SVG/1.1/DTD/svg11.dtd">
<svg width="100%" height="100%" viewBox="0 0 804 752" version="1.1" xmlns="http://www.w3.org/2000/svg" xmlns:xlink="http://www.w3.org/1999/xlink" xml:space="preserve" xmlns:serif="http://www.serif.com/" style="fill-rule:evenodd;clip-rule:evenodd;stroke-linejoin:round;stroke-miterlimit:2;">
    <g transform="matrix(1,0,0,1,-39916.7,-19733.6)">
        <g id="OBJECTS">
        </g>
        <g id="Artboard1" transform="matrix(0.0808812,0,0,0.0534824,39916.7,19733.6)">
            <rect x="0" y="0" width="9933.07" height="14043.3" style="fill:none;"/>
            <g id="BACKGROUND">
            </g>
            <g transform="matrix(16.9618,0,0,25.6512,624.253,679.893)">
                <g>
                    <path d="M145.41,29.4C160.4,19.88 178.32,15.4 196.03,15.99C212.4,16.47 229.1,14.49 245.17,18.59C265.72,23.59 284.18,36.44 296.22,53.81C306.25,68.13 311.79,85.5 311.97,102.98C311.99,114.03 312.08,125.08 311.94,136.13C311.99,139.95 308.87,143.53 305.05,143.86C302.04,144.15 299.01,144 296,143.99C295.67,158 297.08,172.21 294.08,186.02C289.44,208.66 275.36,229.06 256.03,241.66C255.98,247.02 256,252.391 256.01,257.76C268.71,260.8 281.43,263.78 294.12,266.87C305.91,269.55 317.35,273.8 328,279.54C328.17,270.01 327.39,260.37 329.19,250.951C331.92,235.77 339.77,221.59 351.12,211.14C363.24,199.87 379.35,192.98 395.9,192.13C413.04,191.09 430.49,196.45 444.03,207.03C461.18,220.16 471.83,241.33 471.97,262.95C472.04,281.92 471.98,300.89 472,319.87C478.48,320.18 484.96,322.65 489.41,327.5C493.86,332.13 496.18,338.57 496,344.97C495.98,387.34 496.03,429.7 495.98,472.07C496.27,484.85 484.82,496.31 472.02,495.98C320.02,496.03 168.01,495.99 16,496C16.01,463.65 15.98,431.3 16.02,398.95C16.15,368.62 26.84,338.49 45.81,314.84C64.47,291.31 91.11,274.26 120.32,267.26C133.56,264.16 146.77,260.92 159.99,257.76C160,252.4 160,247.03 160,241.67C141.57,229.67 127.89,210.61 122.64,189.23C118.74,174.46 120.33,159.08 120,143.99C115.46,143.71 109.91,145.21 106.32,141.61C102.98,138.31 104.22,133.23 103.99,129.04C104.39,113.88 102.7,98.44 106.42,83.55C111.64,61.32 126.01,41.44 145.41,29.4ZM149.74,45.75C136.47,55.34 126.64,69.58 122.44,85.41C118.61,99.29 120.42,113.81 120,128C139.34,127.98 158.69,128.03 178.03,127.98C193.59,127.85 208.95,120.83 219.17,109.08C224.25,103.16 228.86,96.84 233.91,90.89C236.83,87.09 243.15,87.1 246.08,90.89C253.78,100.21 261.16,109.8 268.81,119.16C271.58,122.53 275.23,125.17 279.36,126.61C284.68,128.56 290.45,127.9 296,127.99C295.58,113.81 297.38,99.29 293.55,85.43C289.35,69.59 279.52,55.34 266.25,45.74C254.09,36.86 239.08,31.98 224.02,32.01C213.01,32.01 202,31.97 191,32.02C176.26,32.18 161.63,37.04 149.74,45.75ZM225.97,125C213.07,136.99 195.61,143.87 178.01,143.98C164,144.03 150,143.98 136,144C136.43,158.15 134.62,172.62 138.39,186.46C142.08,200.49 150.18,213.31 161.22,222.71C172.55,232.46 187,238.52 201.9,239.73C217.25,241.07 233,237.31 246.06,229.1C261.26,219.69 272.71,204.41 277.4,187.15C281.47,172.89 279.56,157.93 279.99,143.32C271.15,141.5 262.84,136.92 257.01,129.98C251.24,123 245.7,115.84 240,108.81C235.5,114.34 231.28,120.18 225.97,125ZM362.97,222.05C351.27,232.24 344.23,247.5 344.05,263.02C343.93,282.01 344.03,301.01 344,320L352,320C352.03,300.98 351.93,281.96 352.05,262.94C352.23,246.88 361.24,231.33 374.99,223.07C388.19,214.84 405.48,213.77 419.62,220.22C437.25,227.87 448.89,246.83 448.01,266C447.99,284 448,302 448,320L456,320C455.99,301.66 456.01,283.32 455.99,264.98C456.01,257.26 454.65,249.5 451.62,242.38C444.57,225.21 428.43,212.15 410.13,208.96C393.5,205.82 375.57,210.72 362.97,222.05ZM375.1,243.93C370.54,249.53 368.03,256.71 368.02,263.93C367.97,282.62 368.02,301.31 368,320L432,320C431.96,300.96 432.08,281.91 431.94,262.87C431.74,247.78 419.39,234.13 404.42,232.32C393.5,230.71 381.95,235.27 375.1,243.93ZM176,249.88C176,253.09 176,256.3 176.02,259.52C186.71,265.86 197.33,272.31 208,278.69C218.66,272.29 229.34,265.92 239.99,259.5C240,256.31 240,253.12 240.01,249.93C219.64,257.91 196.33,258.01 176,249.88ZM148.98,277.05C155.93,287.47 162.87,297.89 169.83,308.3C177.9,301.86 185.96,295.4 194.02,288.95C184.91,283.5 175.84,277.99 166.71,272.57C160.81,274.08 154.88,275.5 148.98,277.05ZM221.99,288.94C230.04,295.4 238.1,301.85 246.18,308.29C253.14,297.86 260.09,287.43 267.03,276.99C261.109,275.52 255.19,274.02 249.26,272.57C240.17,278.02 231.07,283.48 221.99,288.94ZM129.84,281.26C142.05,347.51 154.4,413.74 166.65,479.991C180.06,480.08 193.48,479.86 206.89,480.11C202.59,478.85 199.94,475.11 196.86,472.16C188.68,464 180.55,455.79 172.34,447.68C169.93,445.45 167.49,442.57 168.1,439.03C172.42,399.2 176.97,359.39 181.35,319.57C178.17,321.97 175.27,324.73 171.92,326.9C168.3,329.2 163.2,327.67 161.06,324.06C152.38,311.06 143.69,298.06 135.06,285.02C133.73,283.19 132.72,280.16 129.84,281.26ZM283.62,280.99C274.07,295.33 264.52,309.68 254.93,324C252.8,327.65 247.66,329.24 244.03,326.88C240.71,324.71 237.81,321.96 234.65,319.57C238.77,356.7 242.92,393.83 247.05,430.97C247.37,434.31 248.03,437.65 247.88,441.03C247.7,443.55 245.86,445.45 244.19,447.17C234.13,457.13 224.17,467.19 214.14,477.18C212.76,478.61 210.89,479.35 209.1,480.11C222.51,479.86 235.93,480.08 249.35,479.991C261.59,413.82 273.86,347.66 286.1,281.49C285.48,281.37 284.24,281.11 283.62,280.99ZM75.4,307.36C52.6,326.23 37.24,353.78 33.19,383.09C31.54,393.98 32.09,405.02 32,415.99L32,480L96,480C95.99,451.32 96.03,422.65 95.98,393.97C95.98,391.51 96.11,388.8 97.86,386.89C100.51,383.53 105.94,383.05 109.14,385.89C111.23,387.54 112.06,390.26 111.99,392.86C112.01,421.9 111.99,450.95 112,480L150.4,480C138.4,415.2 126.41,350.4 114.39,285.61C100.2,290.38 86.88,297.74 75.4,307.36ZM265.6,480C278.85,480.01 292.11,479.98 305.36,480.01C304.54,477.06 303.96,474.03 303.99,470.97C304.01,428.96 304,386.95 303.99,344.94C303.81,338.54 306.14,332.09 310.61,327.47C315.05,322.64 321.52,320.18 328,319.87L328,298.14C319.74,292.93 310.86,288.72 301.61,285.59C289.6,350.39 277.6,415.19 265.6,480ZM199.04,305.41C198.63,309 198.22,312.59 197.84,316.19C201.23,317.29 204.61,318.42 207.99,319.57C211.39,318.46 214.78,317.34 218.17,316.21C217.77,312.6 217.37,309 216.94,305.39C213.96,303.01 210.99,300.62 208.01,298.24C205.02,300.63 202.03,303.02 199.04,305.41ZM196.01,332.46C192.11,367.32 188.25,402.19 184.37,437.06C192.25,444.93 200.13,452.8 208.01,460.68C215.9,452.84 223.74,444.94 231.61,437.07C227.73,402.2 223.86,367.32 219.96,332.45C215.96,333.61 212.13,335.53 207.96,335.98C203.81,335.51 199.99,333.61 196.01,332.46ZM325.36,336.47C321.35,337.69 319.55,342.1 319.98,346.01C320.06,388.04 319.91,430.07 320.05,472.1C319.92,476.73 324.36,480.43 328.87,479.991C375.93,480.02 423,479.971 470.06,480.02C475.3,480.87 480.6,476.59 479.99,471.11C480.01,429.06 480,387 480,344.95C480.47,340.4 476.75,335.9 472.07,336.05C424.7,335.92 377.32,336.06 329.94,335.98C328.4,336.02 326.83,336.01 325.36,336.47ZM379.86,378.93C383.98,372.51 391.31,368.27 398.96,368.03C407.3,367.57 415.67,371.89 420.14,378.94C425.12,386.47 425.23,396.84 420.43,404.48C417.63,409.2 413.04,412.55 408.02,414.61C407.93,428.45 408.1,442.28 407.94,456.12C408.03,460.35 404.21,464.08 399.99,463.98C395.78,464.07 391.95,460.36 392.06,456.12C391.89,442.28 392.1,428.43 391.96,414.59C386.24,412.34 381.19,408.18 378.52,402.58C374.75,395.18 375.3,385.85 379.86,378.93ZM397.34,384.45C391.65,386.18 390.13,394.48 394.84,398.1C399.03,401.97 406.64,399.47 407.75,393.88C409.5,388.03 402.99,382.14 397.34,384.45Z" style="fill:rgb(71,116,184);fill-rule:nonzero;"/>
                </g>
            </g>
        </g>
        <g id="BACKGROUND1" serif:id="BACKGROUND">
        </g>
        <g id="Capa-3" serif:id="Capa 3">
        </g>
    </g>
</svg>
