<?xml version="1.0" encoding="UTF-8" standalone="no"?>
<!DOCTYPE svg PUBLIC "-//W3C//DTD SVG 1.1//EN" "http://www.w3.org/Graphics/SVG/1.1/DTD/svg11.dtd">
<svg width="100%" height="100%" viewBox="0 0 804 752" version="1.1" xmlns="http://www.w3.org/2000/svg" xmlns:xlink="http://www.w3.org/1999/xlink" xml:space="preserve" xmlns:serif="http://www.serif.com/" style="fill-rule:evenodd;clip-rule:evenodd;stroke-linejoin:round;stroke-miterlimit:2;">
    <g transform="matrix(1,0,0,1,-38966.3,-19733.6)">
        <g id="OBJECTS">
        </g>
        <g id="Artboard1" transform="matrix(0.0808812,0,0,0.0534824,38966.3,19733.6)">
            <rect x="0" y="0" width="9933.07" height="14043.3" style="fill:none;"/>
            <g transform="matrix(16.9698,0,0,25.6634,622.265,676.385)">
                <g id="BACKGROUND">
                    <g>
                        <path d="M101.05,17.2C107.3,15.91 113.71,16.05 120.06,16.06C156.06,16.11 192.07,16 228.08,16.11C232.53,15.89 236.87,19.37 236.98,23.95C237.34,32.27 237.01,40.62 237.1,48.96C237.19,64.64 232.19,80.29 222.94,92.96C208.97,112.57 185.08,124.59 160.98,123.95C132.18,123.92 103.38,123.94 74.58,123.94C74.59,137.63 74.56,151.33 74.58,165.02C74.21,188.48 90.03,211.03 112.15,218.76C126.86,224.09 143.78,222.99 157.59,215.6C173.87,207.07 185.47,190.3 187.73,172.07C188.83,163.78 187.84,155.41 188.42,147.1C188.73,142.11 194.21,138.46 198.96,139.88C203.02,140.79 205.55,144.91 205.31,148.93C205.32,160.51 206,172.34 202.87,183.62C198.5,200.79 187.65,216.04 173.22,226.24C175.82,235.22 178.79,244.11 181.23,253.13C182.76,257.74 179.55,263.04 174.79,263.86C170.62,264.81 166.17,262.1 165.02,258C162.44,250.18 160.3,242.21 157.84,234.35C142.35,240.13 125.08,240.65 109.26,235.86C107.11,242.26 105.04,248.69 102.86,255.09C107,262.17 113.22,268.16 120.98,271.07C125.46,273.03 130.429,272.96 135.13,274C140.85,275.47 142.83,283.53 138.75,287.67C135.87,291.07 130.97,290.68 126.99,290.17C111.14,288.25 96.84,278.31 88.72,264.68C82.15,264.71 75.56,264.45 69.01,265C55.29,266.15 42.15,272.65 32.78,282.73C23.08,292.96 17.51,306.91 17.41,321.01C17.33,340.42 17.41,359.84 17.38,379.26C33.64,379.27 49.89,379.27 66.15,379.27C66.19,374.6 65.83,369.91 66.37,365.26C66.99,360.31 72.68,357.08 77.31,358.75C81.24,359.88 83.44,363.99 83.19,367.92C83.23,406.95 83.15,445.98 83.23,485.02C83.17,487.79 83.07,490.92 81.01,493.05C77.96,496.62 71.9,496.82 68.66,493.4C66.34,491.28 66.1,487.97 66.1,485.04C66.17,455.47 66.12,425.9 66.13,396.33C47.07,396.27 28,396.44 8.94,396.27C4.61,396.5 1.09,393.28 0,389.25L0,323.32C0.3,308.75 3.889,294.06 11.94,281.8C22.17,265.71 38.81,253.84 57.4,249.57C67.21,247.13 77.38,247.63 87.39,247.6C89.46,241.34 91.54,235.09 93.6,228.83C77.89,219.31 65.74,203.97 60.61,186.28C57.96,177.79 57.34,168.84 57.5,159.99C57.54,130.31 57.49,100.64 57.52,70.96C57.51,61.93 59.58,52.86 63.89,44.9C71.34,30.76 85.35,20.25 101.05,17.2ZM85.29,44.27C78.56,51.03 74.65,60.46 74.61,70C74.53,82.29 74.6,94.58 74.58,106.87C103.73,106.86 132.87,106.86 162.02,106.87C171.95,106.92 181.9,104.39 190.55,99.5C204.67,91.64 215.17,77.6 218.62,61.8C220.8,52.4 219.83,42.69 220.04,33.13C184.01,33.15 147.99,33.1 111.96,33.16C102.05,33.13 92.22,37.17 85.29,44.27ZM307.86,45.84C325.4,29.07 348.85,18.59 373.08,16.88C397.35,15.01 422.2,21.8 442.05,35.92C464.95,51.93 481.12,77.27 485.72,104.86C487.73,115.79 487.21,126.94 487.27,137.99C487.24,162.01 487.32,186.02 487.24,210.03C487.53,214.66 483.61,218.98 478.96,218.96C474.14,219.24 469.92,214.83 470.23,210.05C470.17,185.36 470.22,160.66 470.2,135.96C470.15,126.66 470.59,117.27 468.96,108.07C465.44,86.65 453.69,66.76 436.72,53.25C421.61,41.03 402.39,34.04 382.96,33.68C363.87,33.19 344.72,39.12 329.22,50.26C306.57,66.25 292.15,93.28 291.85,121.05C291.75,171 291.83,220.96 291.81,270.91C305.46,277.96 317.21,288.82 324.7,302.29C335.93,322.07 337.95,346.75 330.21,368.13C324.17,385.43 311.57,400.06 295.87,409.37C298.41,417.65 301.3,425.83 303.68,434.16C305.51,440.08 299.28,446.19 293.39,444.43C289.28,443.58 287.31,439.53 286.36,435.84C284.35,429.34 282.25,422.87 280.19,416.38C264.59,421.32 247.55,421.36 231.94,416.43C229.82,422.88 227.75,429.34 225.62,435.79C230.64,445.34 240.06,452.72 250.89,454.12C254.72,454.68 259.44,454.43 261.829,458.11C265.7,462.98 262.18,471.14 255.93,471.52C237.47,472.11 219.79,460.77 211.07,444.74C200.93,445.17 190.2,443.21 180.63,447.511C168.32,452.67 159.79,465.58 160.02,478.96C159.64,483.95 161.4,490.3 156.89,493.92C152.33,498.07 143.97,495.17 143.16,489C142.36,478.42 142.95,467.36 147.58,457.62C154.85,441.35 171.17,429.57 188.94,427.95C196.05,427.39 203.2,427.78 210.33,427.66C212.3,421.57 214.29,415.49 216.27,409.41C202.76,401.41 191.59,389.47 184.83,375.28C175.65,356.35 174.59,333.7 181.91,313.98C187.63,298.31 198.56,284.65 212.47,275.46C230.51,263.31 253.64,259.32 274.74,264.53L274.74,137C274.8,126.64 274.33,116.2 276.11,105.94C279.68,83.13 291.1,61.7 307.86,45.84ZM251.42,279.54C230.56,280.91 211.02,293.83 201.36,312.33C192.82,328.07 191.79,347.64 198.61,364.2C204.06,377.9 214.61,389.47 227.73,396.2C241.41,403.4 257.859,405.01 272.72,400.78C288.49,396.36 302.28,385.4 310.14,371.03C316.91,358.97 319.33,344.56 316.98,330.93C314.26,314.32 304.27,299.1 290.26,289.81C278.93,282.18 265.04,278.48 251.42,279.54ZM421.36,106.12C426.9,104.18 433.15,104.09 438.58,106.46C446.45,109.68 452.21,117.56 452.62,126.1C452.88,133.72 452.64,141.36 452.72,149C452.59,159.89 453.44,170.97 450.77,181.65C446.69,199.53 435.61,215.54 420.59,226C423.07,234.29 425.57,242.57 428.1,250.85C428.91,253.511 429.5,256.55 428.07,259.12C426.06,263.34 420.32,265.12 416.3,262.7C413.6,261.34 412.44,258.37 411.65,255.641C409.54,248.44 407.35,241.27 405.2,234.08C389.7,239.89 372.36,240.39 356.55,235.52C354.4,241.96 352.3,248.4 350.14,254.83C355.81,264.9 366.35,272.39 378.04,273.07C381.84,273.11 386.07,274.53 387.54,278.38C390.05,283.57 385.81,290.32 380.04,290.24C359.97,290.43 340.82,277.08 333.21,258.64C331.49,254.921 333.51,251.011 334.6,247.43C336.74,241.12 338.81,234.79 340.89,228.46C320.13,216.06 306.18,193.11 304.92,168.94C304.51,157.97 304.88,146.98 304.71,136.01C304.75,132.36 304.31,128.01 307.3,125.3C309.5,122.87 312.97,122.78 316.01,122.78C351.72,123.01 387.46,117.34 421.36,106.12ZM425.07,122.85C391.8,133.81 356.82,139.42 321.81,139.89C321.84,148.26 321.74,156.63 321.85,165C321.98,176.61 325.73,188.14 332.46,197.6C340.97,209.73 354.32,218.48 368.98,220.95C383.89,223.63 399.85,220.05 412.04,211.02C426.3,200.76 435.41,183.64 435.62,166.03C435.71,154 435.61,141.96 435.68,129.93C435.73,127.39 435.51,124.39 433.16,122.85C430.81,120.84 427.66,122.15 425.07,122.85ZM454.22,262.88C452.26,256.9 458.57,250.421 464.6,252.46C475.32,256.28 484.9,263.09 492.61,271.4C504.69,284.43 511.56,301.96 512,319.69L512,342.2C511.3,345.26 509.48,348.28 506.33,349.25C501.42,351.2 495.26,347.46 495.09,342.09C494.35,331.16 495.98,320.05 493.62,309.25C490.05,292.18 478.09,277.05 462.14,269.91C458.93,268.41 455.04,266.74 454.22,262.88ZM433.37,359.3C437.87,356.75 444.35,359.42 445.47,364.54C446.29,369.39 445.76,374.36 445.85,379.27C464.94,379.3 484.04,379.2 503.13,379.3C507.51,379.01 511.13,382.4 512,386.55L512,488.25C511.36,492.94 506.84,496.71 502.06,495.76C497.47,495.15 494.52,490.54 494.94,486.1C494.92,456.18 494.94,426.25 494.93,396.33C478.58,396.34 462.22,396.33 445.86,396.34C445.89,425.9 445.83,455.48 445.9,485.05C445.88,487.96 445.67,491.26 443.37,493.37C440.12,496.81 434.04,496.65 430.98,493.05C428.91,490.91 428.82,487.77 428.77,484.99C428.85,445.99 428.77,406.98 428.81,367.97C428.65,364.52 430.12,360.86 433.37,359.3ZM0.8,422.95C2.13,417.33 9.84,415.13 14.13,418.82C17.03,420.9 17.46,424.69 17.41,427.99C17.36,447 17.37,466.03 17.41,485.05C17.36,487.85 17.22,491.03 15.1,493.14C12.16,496.48 6.55,496.78 3.25,493.79C0.65,491.77 0.43,488.18 0,485.19L0,428.34C0.2,427 0.6,424.3 0.8,422.95ZM334.43,432.7C338.61,431.16 342.59,433.88 345.97,436.04C359.39,444.71 368.26,460.01 368.95,476C369.05,480.57 369.43,485.21 368.68,489.74C367.33,495.49 359.44,497.85 355.09,493.91C350.85,490.57 352.22,484.66 352,479.971C352.37,468.82 347.03,457.59 337.84,451.19C334.82,448.91 330.53,447.63 329.18,443.75C327.42,439.43 329.99,434.07 334.43,432.7Z" style="fill:rgb(71,116,184);fill-rule:nonzero;"/>
                    </g>
                </g>
            </g>
        </g>
        <g id="BACKGROUND1" serif:id="BACKGROUND">
        </g>
        <g id="Capa-3" serif:id="Capa 3">
        </g>
    </g>
</svg>
