<?xml version="1.0" encoding="UTF-8" standalone="no"?>
<!DOCTYPE svg PUBLIC "-//W3C//DTD SVG 1.1//EN" "http://www.w3.org/Graphics/SVG/1.1/DTD/svg11.dtd">
<svg width="100%" height="100%" viewBox="0 0 804 752" version="1.1" xmlns="http://www.w3.org/2000/svg" xmlns:xlink="http://www.w3.org/1999/xlink" xml:space="preserve" xmlns:serif="http://www.serif.com/" style="fill-rule:evenodd;clip-rule:evenodd;stroke-linejoin:round;stroke-miterlimit:2;">
    <g transform="matrix(1,0,0,1,-37116.8,-19733.6)">
        <g id="OBJECTS">
        </g>
        <g id="Artboard1" transform="matrix(0.0808812,0,0,0.0534824,37116.8,19733.6)">
            <rect x="0" y="0" width="9933.07" height="14043.3" style="fill:none;"/>
            <g id="BACKGROUND">
            </g>
            <g transform="matrix(17.2956,0,0,26.1561,538.851,325.687)">
                <g id="Capa-3" serif:id="Capa 3">
                    <g>
                        <path d="M248.7,0L251.46,0C276.3,0.32 300.95,9.92 319.1,26.96C322.55,29.8 325.17,33.94 329.68,35.22C345.21,40.74 357.4,54.46 361.43,70.39C363.17,76.76 363.25,83.41 363.23,89.96C363.19,114.63 363.25,139.31 363.2,163.98C363.34,172.28 360.4,180.59 354.84,186.78C350.22,192.14 343.77,195.61 336.96,197.3C332.32,220.28 317.66,240.96 297.33,252.671C297.29,254.13 297.25,255.58 297.22,257.05C315.71,260.48 334.25,263.69 352.72,267.22C368.23,270.33 382,280.23 390.37,293.59C397.81,290.66 405.26,287.76 412.72,284.89C412.73,302.63 412.71,320.37 412.73,338.11C419.48,338.47 426.23,341.04 430.8,346.15C435.29,350.92 437.56,357.49 437.46,364.01C437.45,374.65 437.54,385.29 437.42,395.93C437.36,403.05 434.17,410.1 428.71,414.7C424.32,418.61 418.5,420.35 412.73,420.73C412.71,430.82 412.73,440.92 412.72,451.01C360.5,471.37 308.25,491.64 256.04,512L256,512C203.76,491.67 151.51,471.37 99.28,451.02C99.27,440.92 99.29,430.82 99.27,420.73C95.18,420.31 91,419.65 87.4,417.53C79.63,413.36 74.6,404.77 74.58,395.97C74.46,385.32 74.55,374.67 74.54,364.03C74.47,358.02 76.33,351.94 80.21,347.29C84.77,341.5 92.01,338.46 99.27,338.12C99.29,320.37 99.27,302.63 99.28,284.89C106.75,287.78 114.22,290.66 121.65,293.63C130.1,280.01 144.22,270.02 160.01,267.06C178.24,263.65 196.5,260.42 214.74,257.05C214.75,255.63 214.75,254.21 214.76,252.791C194.42,240.97 179.7,220.32 175.02,197.28C160.55,194.25 149.05,180.82 148.87,165.96C148.65,146.64 148.85,127.31 148.77,107.99C148.7,97.87 149.2,87.66 151.67,77.8C157.19,54.59 171.3,33.59 190.59,19.58C207.32,7.22 227.93,0.48 248.7,0ZM207.3,28.28C187.84,39.66 173.25,59.07 167.86,80.97C165.93,88.47 165.3,96.23 165.28,103.95C165.28,114.81 165.29,125.67 165.28,136.53C167.91,135.14 170.67,134.01 173.51,133.13C173.53,129.99 173.53,126.86 173.54,123.72C187.13,124.23 201.11,122.64 213.34,116.32C227.62,109.68 237.5,97.03 248.66,86.41C253.21,92.45 257.549,98.73 263.1,103.91C272.22,112.63 283.72,118.82 295.99,121.74C309.92,124.95 324.31,123.3 338.46,123.72C338.46,126.86 338.47,129.99 338.49,133.13C341.33,134.01 344.09,135.13 346.72,136.53C346.64,118.37 346.87,100.2 346.61,82.05C346.25,67.3 335.53,53.53 321.26,49.72C316.43,48.99 314,44.39 310.55,41.5C297.29,28.29 279.68,19.47 261.07,17.23C242.58,14.88 223.33,18.73 207.3,28.28ZM190.01,139.84C190.04,154.24 189.91,168.65 190.07,183.05C190.42,203.57 201.15,223.5 217.94,235.27C231.44,244.95 248.72,249.1 265.16,246.74C278.67,244.91 291.51,238.67 301.36,229.26C314.23,217.16 321.85,199.71 321.96,182.03C322.05,168.09 321.98,154.15 321.99,140.21C313.6,140.26 305.13,140.32 296.85,138.73C277.83,135.41 260.22,125.44 247.14,111.3C232.3,127.26 211.8,137.9 190.01,139.84ZM165.4,165.97C165.63,171.43 168.98,176.28 173.51,179.16C173.54,169.69 173.55,160.22 173.51,150.74C168.4,153.98 164.9,159.81 165.4,165.97ZM338.49,150.75C338.45,160.22 338.46,169.69 338.49,179.16C343.89,175.82 347.41,169.47 346.51,163.06C346.02,157.92 342.72,153.52 338.49,150.75ZM231.99,260.36C239.99,266.36 247.99,272.38 256,278.36C264.02,272.38 272.01,266.36 280.01,260.35C264.38,264.88 247.62,264.9 231.99,260.36ZM215.7,273.67C219.33,284.58 222.98,295.48 226.62,306.39C232.24,300.8 237.84,295.2 243.43,289.58C235.93,283.95 228.43,278.31 220.93,272.69C219.18,273.01 217.44,273.34 215.7,273.67ZM268.56,289.58C274.16,295.19 279.75,300.8 285.38,306.39C289.02,295.48 292.67,284.58 296.3,273.67C294.56,273.35 292.82,273.03 291.08,272.72C283.56,278.32 276.08,283.98 268.56,289.58ZM162.61,283.42C152.54,285.45 143.7,291.62 137.55,299.75C164.14,310.1 190.73,320.44 217.33,330.77C211.33,312.72 205.33,294.67 199.3,276.63C187.08,278.92 174.8,280.93 162.61,283.42ZM294.67,330.76C321.26,320.45 347.84,310.1 374.42,299.75C367.47,290.19 356.57,284.06 344.91,282.48C334.17,280.55 323.43,278.57 312.7,276.63C306.67,294.67 300.67,312.71 294.67,330.76ZM223.27,333.09C234.17,337.35 245.09,341.57 255.99,345.81C266.91,341.58 277.83,337.35 288.73,333.09C277.83,322.16 266.92,311.26 256,300.35C245.09,311.26 234.16,322.16 223.27,333.09ZM115.79,309.01C115.79,319.9 115.77,330.79 115.79,341.68C123.52,345.25 130.3,351.01 134.63,358.38C141.19,369.1 142.25,382.92 137.56,394.57C133.63,404.59 125.56,412.73 115.79,417.17C115.78,424.7 115.78,432.24 115.79,439.78C159.78,456.88 203.75,474 247.75,491.08C247.74,447.49 247.76,403.9 247.74,360.31C203.76,343.21 159.78,326.1 115.79,309.01ZM264.26,360.31C264.24,403.89 264.25,447.47 264.25,491.05C308.25,473.97 352.22,456.85 396.21,439.75C396.22,432.22 396.22,424.69 396.21,417.17C388.54,413.61 381.8,407.92 377.47,400.62C370.42,389.25 369.63,374.35 375.3,362.26C379.47,353.14 387.11,345.82 396.21,341.68C396.23,330.79 396.21,319.9 396.21,309.01C352.22,326.1 308.24,343.21 264.26,360.31ZM96.22,355.35C92.81,356.7 90.86,360.36 91.05,363.94C91.07,374.67 90.91,385.42 91.13,396.15C91.15,401.14 96.21,404.92 101.02,404.02C114.06,403.43 125,391.03 123.91,378.02C123.56,364.44 109.75,352.34 96.22,355.35ZM406.44,355.57C394.92,358.37 386.61,370.35 388.2,382.14C389.29,394.7 401.44,405.2 414.07,403.93C418.26,403.37 421.18,399.21 420.94,395.1C421.02,385.06 420.93,375.02 420.98,364.98C421.04,362.06 420.53,358.83 418.15,356.87C415.01,353.88 410.26,354.68 406.44,355.57Z" style="fill:rgb(71,116,184);fill-rule:nonzero;"/>
                    </g>
                </g>
            </g>
        </g>
        <g id="BACKGROUND1" serif:id="BACKGROUND">
        </g>
        <g id="Capa-31" serif:id="Capa 3">
        </g>
    </g>
</svg>
